nColumns=19
nRows=25
DataType=double
version=3
OpenSimVersion=4.1
endheader
time	ground_force_calcn_r_vx	ground_force_calcn_r_vy	ground_force_calcn_r_vz	ground_force_calcn_r_px	ground_force_calcn_r_py	ground_force_calcn_r_pz	ground_force_calcn_r_mx	ground_force_calcn_r_my	ground_force_calcn_r_mz	ground_force_calcn_l_vx	ground_force_calcn_l_vy	ground_force_calcn_l_vz	ground_force_calcn_l_px	ground_force_calcn_l_py	ground_force_calcn_l_pz	ground_force_calcn_l_mx	ground_force_calcn_l_my	ground_force_calcn_l_mz
0	0.513945	289.488	-43.0018	-0.210543	0	-0.454333	-0.00170381	-0.959697	0.142557	-0.962647	325.119	42.9383	-0.205976	0	-0.901832	-0.00409152	1.38184	0.182499
0.01	0.385316	289.446	-43.0103	-0.210101	0	-0.454228	-0.00127755	-0.959683	0.142604	-1.06739	325.042	42.889	-0.205736	0	-0.901859	-0.00447422	1.36248	0.179779
0.02	0.243638	289.418	-43.023	-0.2096	0	-0.454116	-0.000808553	-0.960479	0.142779	-1.19703	324.976	42.8478	-0.205425	0	-0.901899	-0.0049572	1.3458	0.177443
0.03	0.0902556	289.408	-43.0402	-0.209046	0	-0.453999	-0.000300044	-0.962101	0.143082	-1.35312	324.926	42.8175	-0.205036	0	-0.901953	-0.0055494	1.33259	0.175603
0.04	-0.0740949	289.421	-43.0624	-0.208447	0	-0.453879	0.000246917	-0.96448	0.143503	-1.53636	324.896	42.8001	-0.20457	0	-0.90202	-0.00625667	1.3231	0.174299
0.05	-0.249237	289.462	-43.0902	-0.207808	0	-0.45376	0.000833082	-0.967534	0.14403	-1.74698	324.887	42.7967	-0.204028	0	-0.902102	-0.00708264	1.31717	0.173508
0.06	-0.435661	289.537	-43.1241	-0.207139	0	-0.453641	0.00146122	-0.971112	0.144639	-1.98481	324.904	42.8078	-0.203411	0	-0.902199	-0.00802838	1.3142	0.173153
0.07	-0.634294	289.653	-43.1647	-0.206445	0	-0.453526	0.00213509	-0.974997	0.145296	-2.24928	324.949	42.8339	-0.202726	0	-0.90231	-0.00909169	1.31346	0.173137
0.08	-0.84623	289.819	-43.2126	-0.205736	0	-0.453416	0.00285856	-0.979005	0.145972	-2.53964	325.023	42.8757	-0.201976	0	-0.902434	-0.0102677	1.31405	0.173344
0.09	-1.07294	290.042	-43.2684	-0.205019	0	-0.45331	0.00363657	-0.983057	0.146652	-2.85552	325.129	42.9336	-0.201168	0	-0.902569	-0.0115492	1.31499	0.173646
0.1	-1.31715	290.328	-43.3323	-0.204301	0	-0.453213	0.00447805	-0.98706	0.147321	-3.19724	325.267	43.0084	-0.200307	0	-0.902714	-0.0129285	1.31526	0.17391
0.11	-1.58243	290.684	-43.405	-0.20359	0	-0.453123	0.00539424	-0.990892	0.14796	-3.56604	325.438	43.1008	-0.199399	0	-0.902868	-0.0143988	1.31404	0.174031
0.12	-1.8729	291.112	-43.4872	-0.202892	0	-0.45304	0.00639816	-0.994491	0.14856	-3.96391	325.642	43.2112	-0.19845	0	-0.903031	-0.0159535	1.31061	0.173912
0.13	-2.19366	291.61	-43.5796	-0.202209	0	-0.452964	0.00750558	-0.997738	0.149107	-4.39364	325.875	43.3396	-0.197465	0	-0.903202	-0.0175865	1.30439	0.173477
0.14	-2.55091	292.17	-43.6833	-0.201545	0	-0.452892	0.0087345	-1.00041	0.149575	-4.859	326.13	43.4859	-0.196454	0	-0.903381	-0.0192943	1.29501	0.172676
0.15	-2.95186	292.78	-43.7988	-0.200898	0	-0.452824	0.0101044	-1.0022	0.149926	-5.36513	326.395	43.6492	-0.195423	0	-0.903567	-0.0210766	1.28222	0.171473
0.16	-3.40473	293.418	-43.9266	-0.200266	0	-0.452756	0.0116348	-1.00268	0.150108	-5.9194	326.66	43.8284	-0.194378	0	-0.903758	-0.0229371	1.26577	0.169831
0.17	-3.9184	294.055	-44.0664	-0.199646	0	-0.452686	0.0133417	-1.00122	0.150041	-6.53107	326.914	44.022	-0.193329	0	-0.903953	-0.0248814	1.24544	0.167711
0.18	-4.50212	294.657	-44.2173	-0.199035	0	-0.452612	0.0152347	-0.997093	0.149627	-7.21056	327.147	44.2285	-0.19228	0	-0.904149	-0.026915	1.22115	0.165092
0.19	-5.16483	295.184	-44.3778	-0.198428	0	-0.452531	0.0173135	-0.989513	0.148763	-7.96899	327.348	44.4456	-0.191239	0	-0.904345	-0.0290429	1.19301	0.161981
0.2	-5.91448	295.594	-44.5461	-0.197822	0	-0.452443	0.0195631	-0.977726	0.147343	-8.8176	327.506	44.6704	-0.190205	0	-0.904537	-0.031266	1.16129	0.158395
0.21	-6.75732	295.847	-44.7198	-0.197218	0	-0.452344	0.0219513	-0.961068	0.145274	-9.76689	327.61	44.9	-0.189184	0	-0.904724	-0.033576	1.12624	0.154354
0.22	-7.6975	295.907	-44.8957	-0.196615	0	-0.452236	0.0244254	-0.938959	0.142461	-10.8255	327.653	45.1313	-0.188179	0	-0.904903	-0.0359538	1.08821	0.149891
0.23	-8.73612	295.739	-45.0696	-0.19602	0	-0.452119	0.0269093	-0.910947	0.138825	-11.9987	327.628	45.3612	-0.187196	0	-0.905074	-0.0383711	1.04773	0.145062
0.24	-9.87006	295.312	-45.2358	-0.195442	0	-0.451994	0.0293046	-0.876793	0.134307	-13.2875	327.538	45.587	-0.186246	0	-0.905235	-0.0407889	1.00545	0.139939
